<?xml version="1.0" encoding="UTF-8"?>
<svg id="Capa_2" data-name="Capa 2" xmlns="http://www.w3.org/2000/svg" viewBox="0 0 1183.4 187.33">
  <defs>
    <style>
      .cls-1 {
        fill: #fff;
      }
    </style>
  </defs>
  <g id="Capa_1-2" data-name="Capa 1">
    <g>
      <polygon class="cls-1" points="0 2.85 0 15.83 57.08 15.83 57.08 184.48 71.09 184.48 71.09 15.83 128.17 15.83 128.17 2.85 0 2.85"/>
      <path class="cls-1" d="M229.62,0c-52.41,0-93.67,41.77-93.67,93.66s41.25,93.67,93.67,93.67,93.66-41.77,93.66-93.67S282.03,0,229.62,0M229.62,174.1c-44.89,0-79.91-35.81-79.91-80.43S184.74,13.23,229.62,13.23s79.91,35.81,79.91,80.43-35.03,80.43-79.91,80.43"/>
      <path class="cls-1" d="M441.34,0c-52.41,0-93.66,41.77-93.66,93.66s41.25,93.67,93.66,93.67,93.66-41.77,93.66-93.67S493.75,0,441.34,0M441.34,174.1c-44.89,0-79.91-35.81-79.91-80.43S396.46,13.23,441.34,13.23s79.91,35.81,79.91,80.43-35.03,80.43-79.91,80.43"/>
      <polygon class="cls-1" points="583.53 2.85 569.77 2.85 569.77 184.48 669.15 184.48 669.15 171.5 583.53 171.5 583.53 2.85"/>
      <path class="cls-1" d="M794.47,90.29c14.01-7.52,23.35-22.05,23.35-39.7,0-26.2-21.28-47.74-47.74-47.74h-72.39v181.62h78.36c27.5,0,49.56-22.05,49.56-49.56,0-20.76-12.97-37.62-31.13-44.63M711.44,15.83h58.64c18.68,0,33.99,15.57,33.99,34.77s-15.31,34.77-33.99,34.77h-58.64V15.83ZM776.05,171.5h-64.61v-73.17h64.61c19.72,0,35.8,16.35,35.8,36.58s-16.09,36.58-35.8,36.58"/>
      <polygon class="cls-1" points="1122.94 91.07 1180.02 2.85 1164.2 2.85 1115.16 78.88 1065.86 2.85 1050.03 2.85 1107.11 91.07 1046.66 184.48 1062.75 184.48 1115.16 103.52 1167.57 184.48 1183.4 184.48 1122.94 91.07"/>
      <path class="cls-1" d="M1014.37,38.26l-56.18-30.44-9.17-4.97L943.76,0l-5.27,2.85-9.17,4.97-56.18,30.44-6.82,3.7-6.93,3.76v95.91l13.75,7.45,56.18,30.44,9.17,4.97,5.27,2.85,5.27-2.85,9.17-4.97,56.18-30.44,13.75-7.45V45.71l-6.93-3.76-6.82-3.7ZM936.89,167.96l-63.73-34.53V61.29l56.18,30.44,7.56,4.09v72.14ZM943.76,83.91l-6.88-3.73-56.12-30.41,56.12-30.41,6.88-3.73,6.88,3.73,56.12,30.41-56.12,30.41-6.88,3.73ZM1014.37,133.43l-63.73,34.53v-72.14l7.56-4.09,56.18-30.44v72.14Z"/>
    </g>
  </g>
</svg>